  0
SECTION
  2
HEADER
  9
$ACADVER
  1
AC1009
  9
$INSBASE
 10
0.0
 20
0.0
 30
0.0
  9
$EXTMIN
 10
-6.0
 20
0.0
 30
0.0
  9
$EXTMAX
 10
564.5681981595375873
 20
529.1950326233964006
 30
0.0
  9
$LIMMIN
 10
0.0
 20
0.0
  9
$LIMMAX
 10
420.0
 20
297.0
  9
$ORTHOMODE
 70
     1
  9
$REGENMODE
 70
     1
  9
$FILLMODE
 70
     1
  9
$QTEXTMODE
 70
     0
  9
$MIRRTEXT
 70
     0
  9
$DRAGMODE
 70
     2
  9
$LTSCALE
 40
1.0
  9
$OSMODE
 70
   695
  9
$ATTMODE
 70
     1
  9
$TEXTSIZE
 40
2.5
  9
$TRACEWID
 40
1.0
  9
$TEXTSTYLE
  7
STANDARD
  9
$CLAYER
  8
0
  9
$CELTYPE
  6
BYLAYER
  9
$CECOLOR
 62
   256
  9
$DIMSCALE
 40
1.0
  9
$DIMASZ
 40
2.5
  9
$DIMEXO
 40
0.625
  9
$DIMDLI
 40
3.75
  9
$DIMRND
 40
0.0
  9
$DIMDLE
 40
0.0
  9
$DIMEXE
 40
1.25
  9
$DIMTP
 40
0.0
  9
$DIMTM
 40
0.0
  9
$DIMTXT
 40
2.5
  9
$DIMCEN
 40
2.5
  9
$DIMTSZ
 40
0.0
  9
$DIMTOL
 70
     0
  9
$DIMLIM
 70
     0
  9
$DIMTIH
 70
     0
  9
$DIMTOH
 70
     0
  9
$DIMSE1
 70
     0
  9
$DIMSE2
 70
     0
  9
$DIMTAD
 70
     1
  9
$DIMZIN
 70
     8
  9
$DIMBLK
  1

  9
$DIMASO
 70
     1
  9
$DIMSHO
 70
     1
  9
$DIMPOST
  1

  9
$DIMAPOST
  1

  9
$DIMALT
 70
     0
  9
$DIMALTD
 70
     3
  9
$DIMALTF
 40
0.03937007874016
  9
$DIMLFAC
 40
1.0
  9
$DIMTOFL
 70
     1
  9
$DIMTVP
 40
0.0
  9
$DIMTIX
 70
     0
  9
$DIMSOXD
 70
     0
  9
$DIMSAH
 70
     0
  9
$DIMBLK1
  1

  9
$DIMBLK2
  1

  9
$DIMSTYLE
  2
ISO-25
  9
$DIMCLRD
 70
     0
  9
$DIMCLRE
 70
     0
  9
$DIMCLRT
 70
     0
  9
$DIMTFAC
 40
1.0
  9
$DIMGAP
 40
0.625
  9
$LUNITS
 70
     2
  9
$LUPREC
 70
     4
  9
$SKETCHINC
 40
1.0
  9
$FILLETRAD
 40
0.0
  9
$AUNITS
 70
     0
  9
$AUPREC
 70
     0
  9
$MENU
  1
.
  9
$ELEVATION
 40
0.0
  9
$PELEVATION
 40
0.0
  9
$THICKNESS
 40
0.0
  9
$LIMCHECK
 70
     0
  9
$BLIPMODE
 70
     0
  9
$CHAMFERA
 40
0.0
  9
$CHAMFERB
 40
0.0
  9
$SKPOLY
 70
     0
  9
$TDCREATE
 40
2461014.5382638890296221
  9
$TDUPDATE
 40
2461019.4178587961941957
  9
$TDINDWG
 40
3.9688657407000001
  9
$TDUSRTIMER
 40
3.9688425926000002
  9
$USRTIMER
 70
     1
  9
$ANGBASE
 50
0.0
  9
$ANGDIR
 70
     0
  9
$PDMODE
 70
     0
  9
$PDSIZE
 40
0.0
  9
$PLINEWID
 40
0.0
  9
$COORDS
 70
     1
  9
$SPLFRAME
 70
     0
  9
$SPLINETYPE
 70
     6
  9
$SPLINESEGS
 70
     8
  9
$ATTDIA
 70
     1
  9
$ATTREQ
 70
     1
  9
$HANDLING
 70
     1
  9
$HANDSEED
  5
1246
  9
$SURFTAB1
 70
     6
  9
$SURFTAB2
 70
     6
  9
$SURFTYPE
 70
     6
  9
$SURFU
 70
     6
  9
$SURFV
 70
     6
  9
$UCSNAME
  2

  9
$UCSORG
 10
0.0
 20
0.0
 30
0.0
  9
$UCSXDIR
 10
1.0
 20
0.0
 30
0.0
  9
$UCSYDIR
 10
0.0
 20
1.0
 30
0.0
  9
$PUCSNAME
  2

  9
$PUCSORG
 10
0.0
 20
0.0
 30
0.0
  9
$PUCSXDIR
 10
1.0
 20
0.0
 30
0.0
  9
$PUCSYDIR
 10
0.0
 20
1.0
 30
0.0
  9
$USERI1
 70
     0
  9
$USERI2
 70
     0
  9
$USERI3
 70
     0
  9
$USERI4
 70
     0
  9
$USERI5
 70
     0
  9
$USERR1
 40
0.0
  9
$USERR2
 40
0.0
  9
$USERR3
 40
0.0
  9
$USERR4
 40
0.0
  9
$USERR5
 40
0.0
  9
$WORLDVIEW
 70
     1
  9
$SHADEDGE
 70
     3
  9
$SHADEDIF
 70
    70
  9
$TILEMODE
 70
     1
  9
$MAXACTVP
 70
    64
  9
$PLIMCHECK
 70
     0
  9
$PEXTMIN
 10
0.0
 20
0.0
 30
0.0
  9
$PEXTMAX
 10
0.0
 20
0.0
 30
0.0
  9
$PLIMMIN
 10
0.0
 20
0.0
  9
$PLIMMAX
 10
12.0
 20
9.0
  9
$UNITMODE
 70
     0
  9
$VISRETAIN
 70
     1
  9
$PLINEGEN
 70
     0
  9
$PSLTSCALE
 70
     1
  0
ENDSEC
  0
SECTION
  2
TABLES
  0
TABLE
  2
VPORT
 70
     1
  0
VPORT
  2
*ACTIVE
 70
     0
 10
0.0
 20
0.0
 11
1.0
 21
1.0
 12
230.5200950330635976
 22
170.5823460420633069
 13
0.0
 23
0.0
 14
10.0
 24
10.0
 15
10.0
 25
10.0
 16
0.0
 26
0.0
 36
1.0
 17
0.0
 27
0.0
 37
0.0
 40
955.0468097189872196
 41
1.9240196078431371
 42
50.0
 43
0.0
 44
0.0
 50
0.0
 51
0.0
 71
     0
 72
  1000
 73
     1
 74
     3
 75
     0
 76
     0
 77
     0
 78
     0
  0
ENDTAB
  0
TABLE
  2
LTYPE
 70
     3
  0
LTYPE
  2
CONTINUOUS
 70
     0
  3
Solid line
 72
    65
 73
     0
 40
0.0
  0
LTYPE
  2
ACAD_ISO02W100
 70
     0
  3
ISO dash __ __ __ __ __ __ __ __ __ __ __ __ __
 72
    65
 73
     2
 40
15.0
 49
12.0
 49
-3.0
  0
ENDTAB
  0
TABLE
  2
LAYER
 70
     2
  0
LAYER
  2
0
 70
     0
 62
     7
  6
CONTINUOUS
  0
LAYER
  2
DEFPOINTS
 70
     0
 62
     7
  6
CONTINUOUS
  0
ENDTAB
  0
TABLE
  2
STYLE
 70
     3
  0
STYLE
  2
STANDARD
 70
     0
 40
0.0
 41
1.0
 50
0.0
 71
     0
 42
2.5
  3
txt
  4

  0
STYLE
  2
ANNOTATIVE
 70
     0
 40
0.0
 41
1.0
 50
0.0
 71
     0
 42
2.5
  3
txt
  4

  0
STYLE
  2

 70
     1
 40
0.0
 41
1.0
 50
0.0
 71
     0
 42
2.5
  3
ltypeshp.shx
  4

  0
ENDTAB
  0
TABLE
  2
VIEW
 70
     0
  0
ENDTAB
  0
TABLE
  2
UCS
 70
     0
  0
ENDTAB
  0
TABLE
  2
APPID
 70
    10
  0
APPID
  2
ACAD
 70
     0
  0
APPID
  2
ACADANNOTATIVE
 70
     0
  0
APPID
  2
ACAD_PSEXT
 70
     0
  0
APPID
  2
ACADANNOPO
 70
     0
  0
APPID
  2
ACAD_DSTYLE_DIMJAG
 70
     0
  0
APPID
  2
ACAD_DSTYLE_DIMTALN
 70
     0
  0
APPID
  2
ACAD_MLEADERVER
 70
     0
  0
APPID
  2
ACAD_NAV_VCDISPLAY
 70
     0
  0
APPID
  2
ACAD_EXEMPT_FROM_CAD_STANDARDS
 70
     0
  0
APPID
  2
ACAD_DSTYLE_DIMRADIAL_EXTENSION
 70
     0
  0
ENDTAB
  0
TABLE
  2
DIMSTYLE
 70
     4
  0
DIMSTYLE
  2
STANDARD
 70
     0
  3

  4

  5

  6

  7

 40
1.0
 41
0.18
 42
0.0625
 43
0.38
 44
0.18
 45
0.0
 46
0.0
 47
0.0
 48
0.0
140
0.18
141
0.09
142
0.0
143
25.3999999999999986
144
1.0
145
0.0
146
1.0
147
0.09
 71
     0
 72
     0
 73
     1
 74
     1
 75
     0
 76
     0
 77
     0
 78
     0
170
     0
171
     2
172
     0
173
     0
174
     0
175
     0
176
     0
177
     0
178
     0
  0
DIMSTYLE
  2
ANNOTATIVE
 70
     0
  3

  4

  5

  6

  7

 40
0.0
 41
2.5
 42
0.625
 43
3.75
 44
1.25
 45
0.0
 46
0.0
 47
0.0
 48
0.0
140
2.5
141
2.5
142
0.0
143
0.03937007874016
144
1.0
145
0.0
146
1.0
147
0.625
 71
     0
 72
     0
 73
     0
 74
     0
 75
     0
 76
     0
 77
     1
 78
     8
170
     0
171
     3
172
     1
173
     0
174
     0
175
     0
176
     0
177
     0
178
     0
  0
DIMSTYLE
  2
ISO-25
 70
     0
  3

  4

  5

  6

  7

 40
1.0
 41
2.5
 42
0.625
 43
3.75
 44
1.25
 45
0.0
 46
0.0
 47
0.0
 48
0.0
140
2.5
141
2.5
142
0.0
143
0.03937007874016
144
1.0
145
0.0
146
1.0
147
0.625
 71
     0
 72
     0
 73
     0
 74
     0
 75
     0
 76
     0
 77
     1
 78
     8
170
     0
171
     3
172
     1
173
     0
174
     0
175
     0
176
     0
177
     0
178
     0
  0
ENDTAB
  0
ENDSEC
  0
SECTION
  2
BLOCKS
  0
BLOCK
  8
0
  2
$MODEL_SPACE
 70
     0
 10
0.0
 20
0.0
 30
0.0
  3
$MODEL_SPACE
  1

  0
ENDBLK
  5
FAF
  8
0
  0
BLOCK
 67
     1
  8
0
  2
$PAPER_SPACE
 70
     0
 10
0.0
 20
0.0
 30
0.0
  3
$PAPER_SPACE
  1

  0
ENDBLK
  5
FAB
 67
     1
  8
0
  0
BLOCK
  8
0
  2
*D2
 70
     1
 10
0.0
 20
0.0
 30
0.0
  3
*D2
  1

  0
LINE
  5
F35
  8
0
 62
     0
 10
0.0
 20
500.6249999999996021
 30
0.0
 11
0.0000000000000018
 21
529.1950326233964006
 31
0.0
  0
LINE
  5
F36
  8
0
 62
     0
 10
500.0
 20
500.6249999999996021
 30
0.0
 11
500.0
 21
529.1950326233964006
 31
0.0
  0
LINE
  5
F37
  8
0
 62
     0
 10
2.5
 20
527.9450326233964006
 30
0.0
 11
497.5
 21
527.9450326233964006
 31
0.0
  0
SOLID
  5
F38
  8
0
 62
     0
 10
2.5
 20
528.3616992900630294
 30
0.0
 11
2.5
 21
527.5283659567295445
 31
0.0
 12
0.0000000000000017
 22
527.9450326233964006
 32
0.0
 13
0.0000000000000017
 23
527.9450326233964006
 33
0.0
  0
SOLID
  5
F39
  8
0
 62
     0
 10
497.5
 20
528.3616992900630294
 30
0.0
 11
497.5
 21
527.5283659567295445
 31
0.0
 12
500.0
 22
527.9450326233964006
 32
0.0
 13
500.0
 23
527.9450326233964006
 33
0.0
  0
TEXT
  5
F3E
  8
0
 62
     0
 10
245.0
 20
525.3949999999998681
 30
0.0
 40
2.5
  1
500
  0
POINT
  5
F3B
  8
DEFPOINTS
 62
     0
 10
0.0
 20
499.9999999999997726
 30
0.0
  0
POINT
  5
F3C
  8
DEFPOINTS
 62
     0
 10
500.0
 20
499.9999999999997726
 30
0.0
  0
POINT
  5
F3D
  8
DEFPOINTS
 62
     0
 10
500.0
 20
527.9450326233964006
 30
0.0
  0
ENDBLK
  5
D9F
  8
0
  0
BLOCK
  8
0
  2
*D3
 70
     1
 10
0.0
 20
0.0
 30
0.0
  3
*D3
  1

  0
LINE
  5
1238
  8
0
 62
     0
 10
500.6250000000002274
 20
500.0
 30
0.0
 11
564.568198159537701
 21
500.0
 31
0.0
  0
LINE
  5
1239
  8
0
 62
     0
 10
500.6250000000002274
 20
0.0000000000000001
 30
0.0
 11
564.5681981595378147
 21
0.0000000000000104
 31
0.0
  0
LINE
  5
123A
  8
0
 62
     0
 10
563.3181981595375873
 20
497.5
 30
0.0
 11
563.318198159537701
 21
2.5000000000000102
 31
0.0
  0
SOLID
  5
123B
  8
0
 62
     0
 10
562.9015314928709586
 20
497.5
 30
0.0
 11
563.7348648262043298
 21
497.5
 31
0.0
 12
563.3181981595375873
 22
500.0
 32
0.0
 13
563.3181981595375873
 23
500.0
 33
0.0
  0
SOLID
  5
123C
  8
0
 62
     0
 10
562.9015314928711859
 20
2.5000000000000102
 30
0.0
 11
563.7348648262044435
 21
2.5000000000000102
 31
0.0
 12
563.318198159537701
 22
0.0000000000000102
 32
0.0
 13
563.318198159537701
 23
0.0000000000000102
 33
0.0
  0
TEXT
  8
0
  40
2.5
  5
1244
  62
0
  72
0
  71
0
 10
556.443
 20
245.575
 30
0.00000
  1
500
  0
POINT
  5
123E
  8
DEFPOINTS
 62
     0
 10
500.0000000000002274
 20
500.0
 30
0.0
  0
POINT
  5
123F
  8
DEFPOINTS
 62
     0
 10
500.0000000000002274
 20
0.0
 30
0.0
  0
POINT
  5
1240
  8
DEFPOINTS
 62
     0
 10
563.318198159537701
 20
0.0000000000000102
 30
0.0
  0
ENDBLK
  5
FCB
  8
0
  0
BLOCK
  8
0
  2
*D5
 70
     1
 10
0.0
 20
0.0
 30
0.0
  3
*D5
  1

  0
LINE
  5
11EE
  8
0
 62
     0
 10
0.0
 20
500.0624999999997158
 30
0.0
 11
0.0000000000000017
 21
528.1250326233963506
 31
0.0
  0
LINE
  5
11EF
  8
0
 62
     0
 10
500.0
 20
500.0624999999997158
 30
0.0
 11
500.0
 21
528.1250326233963506
 31
0.0
  0
LINE
  5
11F0
  8
0
 62
     0
 10
0.1800000000000017
 20
527.9450326233964006
 30
0.0
 11
249.3700000000000045
 21
527.9450326233964006
 31
0.0
  0
LINE
  5
11F1
  8
0
 62
     0
 10
499.8199999999998795
 20
527.9450326233964006
 30
0.0
 11
250.6299999999999955
 21
527.9450326233964006
 31
0.0
  0
SOLID
  5
11F2
  8
0
 62
     0
 10
0.1800000000000017
 20
527.9750326233963733
 30
0.0
 11
0.1800000000000017
 21
527.9150326233964279
 31
0.0
 12
0.0000000000000017
 22
527.9450326233964006
 32
0.0
 13
0.0000000000000017
 23
527.9450326233964006
 33
0.0
  0
SOLID
  5
11F3
  8
0
 62
     0
 10
499.8199999999998795
 20
527.9750326233963733
 30
0.0
 11
499.8199999999998795
 21
527.9150326233964279
 31
0.0
 12
500.0
 22
527.9450326233964006
 32
0.0
 13
500.0
 23
527.9450326233964006
 33
0.0
  0
TEXT
  8
0
  40
0.18
  5
1245
  62
0
  72
0
  71
0
 10
249.640
 20
527.626
 30
0.00000
  1
500.0000
  0
POINT
  5
11F5
  8
DEFPOINTS
 62
     0
 10
0.0
 20
499.9999999999997726
 30
0.0
  0
POINT
  5
11F6
  8
DEFPOINTS
 62
     0
 10
500.0
 20
499.9999999999997726
 30
0.0
  0
POINT
  5
11F7
  8
DEFPOINTS
 62
     0
 10
500.0
 20
527.9450326233964006
 30
0.0
  0
ENDBLK
  5
1177
  8
0
  0
ENDSEC
  0
SECTION
  2
ENTITIES
  0
POLYLINE
  5
2E7
  8
0
 66
     1
 10
0.0
 20
0.0
 30
0.0
 70
     1
  0
VERTEX
  5
1186
  8
0
 10
500.0
 20
0.0
 30
0.0
  0
VERTEX
  5
1187
  8
0
 10
500.0
 20
499.9999999999997726
 30
0.0
  0
VERTEX
  5
1188
  8
0
 10
0.0
 20
499.9999999999997726
 30
0.0
  0
VERTEX
  5
1189
  8
0
 10
0.0
 20
0.0
 30
0.0
  0
SEQEND
  5
118A
  8
0
  0
LINE
  5
2F4
  8
0
 10
-5.9999999999990878
 20
488.320633719856005
 30
0.0
 11
506.0000000000009095
 21
488.320633719856005
 31
0.0
  0
POLYLINE
  5
2F5
  8
0
 66
     1
 10
0.0
 20
0.0
 30
0.0
  0
VERTEX
  5
118B
  8
0
 10
-6.0
 20
249.999999999999801
 30
0.0
  0
VERTEX
  5
118C
  8
0
 10
506.0
 20
249.999999999999801
 30
0.0
  0
SEQEND
  5
118D
  8
0
  0
LINE
  5
2F6
  8
0
 10
-5.9999999999990878
 20
11.6793662801435403
 30
0.0
 11
506.0000000000009095
 21
11.6793662801435403
 31
0.0
  0
POLYLINE
  5
3EA
  8
0
 66
     1
 10
0.0
 20
0.0
 30
0.0
 70
     1
  0
VERTEX
  5
118E
  8
0
 10
318.634105834228194
 20
109.0083467556980992
 30
0.0
 42
0.2296252585044131
  0
VERTEX
  5
118F
  8
0
 10
337.489128942566424
 20
76.5933815907458353
 30
0.0
 42
0.5072664028750264
  0
VERTEX
  5
1190
  8
0
 10
337.6409259752953744
 20
76.6481653919888686
 30
0.0
 42
-0.332844234096455
  0
VERTEX
  5
1191
  8
0
 10
344.3574639666881012
 20
81.6763344128792141
 30
0.0
  0
VERTEX
  5
1192
  8
0
 10
501.4999999999997158
 20
81.676334412880621
 30
0.0
 42
0.4142135623730784
  0
VERTEX
  5
1193
  8
0
 10
502.0
 20
82.1763344128805642
 30
0.0
  0
VERTEX
  5
1194
  8
0
 10
502.0000000000009095
 20
91.8443279321643331
 30
0.0
 42
0.4142135623731036
  0
VERTEX
  5
1195
  8
0
 10
501.5000000000009095
 20
92.3443279321643189
 30
0.0
  0
VERTEX
  5
1196
  8
0
 10
356.8671983812723738
 20
92.3443279321643189
 30
0.0
 42
-0.2568885438385255
  0
VERTEX
  5
1197
  8
0
 10
351.7996367741944255
 20
95.1318803670671969
 30
0.0
  0
VERTEX
  5
1198
  8
0
 10
331.626631181896812
 20
126.9543293151989047
 30
0.0
 42
0.2568885438386284
  0
VERTEX
  5
1199
  8
0
 10
331.5421718217784814
 20
127.0007885224473938
 30
0.0
  0
VERTEX
  5
119A
  8
0
 10
323.7115464072643931
 20
127.0007885224473938
 30
0.0
 42
-0.2670816039068051
  0
VERTEX
  5
119B
  8
0
 10
318.5251369758756823
 20
129.9839760970592124
 30
0.0
  0
VERTEX
  5
119C
  8
0
 10
283.9306153429404844
 20
189.4577941447338958
 30
0.0
 42
0.0474157891967967
  0
VERTEX
  5
119D
  8
0
 10
254.6144220926061905
 20
178.7101070653459089
 30
0.0
 42
0.020172631816955
  0
VERTEX
  5
119E
  8
0
 10
247.8409736430471924
 20
175.1276461996224043
 30
0.0
  0
VERTEX
  5
119F
  8
0
 10
178.0923642702842074
 20
134.5565200298017032
 30
0.0
 42
-0.4142135623739696
  0
VERTEX
  5
11A0
  8
0
 10
171.2563460562936939
 20
136.3645175348167129
 30
0.0
 42
0.4272371646276259
  0
VERTEX
  5
11A1
  8
0
 10
170.9753546654168872
 20
136.4322188071394066
 30
0.0
  0
VERTEX
  5
11A2
  8
0
 10
160.7724079603572136
 20
129.8766470981746863
 30
0.0
 42
0.2552618240121211
  0
VERTEX
  5
11A3
  8
0
 10
160.7264634986021008
 20
129.7925162549306037
 30
0.0
  0
VERTEX
  5
11A4
  8
0
 10
160.7264634986021008
 20
97.6763344128791857
 30
0.0
 42
-0.4142135623730951
  0
VERTEX
  5
11A5
  8
0
 10
154.7264634986021861
 20
91.6763344128792141
 30
0.0
  0
VERTEX
  5
11A6
  8
0
 10
-1.499999999999543
 20
91.6763344128792141
 30
0.0
 42
0.4142135623730795
  0
VERTEX
  5
11A7
  8
0
 10
-1.999999999999543
 20
91.1763344128791857
 30
0.0
  0
VERTEX
  5
11A8
  8
0
 10
-1.999999999999998
 20
82.1763344128787736
 30
0.0
 42
0.4142135623731109
  0
VERTEX
  5
11A9
  8
0
 10
-1.5000000000000091
 20
81.6763344128787452
 30
0.0
  0
VERTEX
  5
11AA
  8
0
 10
187.0000813530045036
 20
81.6763344128796831
 30
0.0
 42
-0.2495527609037868
  0
VERTEX
  5
11AB
  8
0
 10
191.9771447130829074
 20
79.0272805941642531
 30
0.0
 42
1.0468654080323661
  0
VERTEX
  5
11AC
  8
0
 10
192.1375924142361953
 20
79.1463299344443527
 30
0.0
 42
-0.0393445209123353
  0
VERTEX
  5
11AD
  8
0
 10
191.4221114626051872
 20
80.179932334410509
 30
0.0
  0
VERTEX
  5
11AE
  8
0
 10
168.8208481084770938
 20
119.035316393004706
 30
0.0
 42
-0.4142135623732653
  0
VERTEX
  5
11AF
  8
0
 10
170.9904451144788027
 20
127.2385382497862025
 30
0.0
  0
VERTEX
  5
11B0
  8
0
 10
240.3719253228832997
 20
167.5961140164974097
 30
0.0
 42
-0.0177889798568307
  0
VERTEX
  5
11B1
  8
0
 10
245.5903131482322976
 20
170.3880129061874129
 30
0.0
 42
-0.0528793361019479
  0
VERTEX
  5
11B2
  8
0
 10
279.9077288798171139
 20
182.915963065967901
 30
0.0
 42
-0.3337014766468284
  0
VERTEX
  5
11B3
  8
0
 10
285.992627100521986
 20
180.344777670083289
 30
0.0
  0
VERTEX
  5
11B4
  8
0
 10
306.8685421718463999
 20
144.4555583392190101
 30
0.0
 42
-0.4142135623730915
  0
VERTEX
  5
11B5
  8
0
 10
304.6989451658437247
 20
136.2523364824403131
 30
0.0
  0
VERTEX
  5
11B6
  8
0
 10
302.8605560473533274
 20
135.1829887557080099
 30
0.0
 42
0.9999999999999996
  0
VERTEX
  5
11B7
  8
0
 10
302.9611164615320718
 20
135.0101084413284127
 30
0.0
  0
VERTEX
  5
11B8
  8
0
 10
304.7995055800233217
 20
136.0794561680602044
 30
0.0
 42
-0.4142135623730752
  0
VERTEX
  5
11B9
  8
0
 10
313.0027274368035251
 20
133.9098591620578134
 30
0.0
  0
VERTEX
  5
11BA
  8
0
 10
322.2040053342375927
 20
118.091310396314995
 30
0.0
 42
-0.4142135623731926
  0
VERTEX
  5
11BB
  8
0
 10
320.0344083282355996
 20
109.8880885395358007
 30
0.0
  0
VERTEX
  5
11BC
  8
0
 10
318.6835414098313777
 20
109.1023210141595001
 30
0.0
 42
0.2873841989342198
  0
SEQEND
  5
11BD
  8
0
  0
POLYLINE
  5
419
  8
0
 66
     1
 10
0.0
 20
0.0
 30
0.0
 70
     1
  0
VERTEX
  5
11BE
  8
0
 10
318.634105834228194
 20
347.3289804755538057
 30
0.0
 42
0.2296252585044131
  0
VERTEX
  5
11BF
  8
0
 10
337.489128942566424
 20
314.9140153106015987
 30
0.0
 42
0.5072664028750264
  0
VERTEX
  5
11C0
  8
0
 10
337.6409259752953744
 20
314.9687991118444756
 30
0.0
 42
-0.332844234096455
  0
VERTEX
  5
11C1
  8
0
 10
344.3574639666881012
 20
319.9969681327349917
 30
0.0
  0
VERTEX
  5
11C2
  8
0
 10
501.4999999999997158
 20
319.9969681327364128
 30
0.0
 42
0.4142135623730784
  0
VERTEX
  5
11C3
  8
0
 10
502.0
 20
320.4969681327364128
 30
0.0
  0
VERTEX
  5
11C4
  8
0
 10
502.0000000000009095
 20
330.1649616520201107
 30
0.0
 42
0.4142135623731036
  0
VERTEX
  5
11C5
  8
0
 10
501.5000000000009095
 20
330.6649616520201107
 30
0.0
  0
VERTEX
  5
11C6
  8
0
 10
356.8671983812723738
 20
330.6649616520201107
 30
0.0
 42
-0.2568885438385255
  0
VERTEX
  5
11C7
  8
0
 10
351.7996367741944255
 20
333.4525140869229745
 30
0.0
  0
VERTEX
  5
11C8
  8
0
 10
331.626631181896812
 20
365.2749630350547818
 30
0.0
 42
0.2568885438386284
  0
VERTEX
  5
11C9
  8
0
 10
331.5421718217784814
 20
365.3214222423032993
 30
0.0
  0
VERTEX
  5
11CA
  8
0
 10
323.7115464072643931
 20
365.3214222423032993
 30
0.0
 42
-0.2670816039068051
  0
VERTEX
  5
11CB
  8
0
 10
318.5251369758756823
 20
368.3046098169148763
 30
0.0
  0
VERTEX
  5
11CC
  8
0
 10
283.9306153429404844
 20
427.7784278645896734
 30
0.0
 42
0.0474157891967967
  0
VERTEX
  5
11CD
  8
0
 10
254.6144220926061905
 20
417.030740785201715
 30
0.0
 42
0.020172631816955
  0
VERTEX
  5
11CE
  8
0
 10
247.8409736430471924
 20
413.4482799194778977
 30
0.0
  0
VERTEX
  5
11CF
  8
0
 10
178.0923642702842074
 20
372.8771537496576229
 30
0.0
 42
-0.4142135623739696
  0
VERTEX
  5
11D0
  8
0
 10
171.2563460562936939
 20
374.6851512546724052
 30
0.0
 42
0.4272371646276259
  0
VERTEX
  5
11D1
  8
0
 10
170.9753546654168872
 20
374.7528525269951842
 30
0.0
  0
VERTEX
  5
11D2
  8
0
 10
160.7724079603572136
 20
368.1972808180304924
 30
0.0
 42
0.2552618240121211
  0
VERTEX
  5
11D3
  8
0
 10
160.7264634986021008
 20
368.113149974786495
 30
0.0
  0
VERTEX
  5
11D4
  8
0
 10
160.7264634986021008
 20
335.9969681327349917
 30
0.0
 42
-0.4142135623730951
  0
VERTEX
  5
11D5
  8
0
 10
154.7264634986021861
 20
329.9969681327349917
 30
0.0
  0
VERTEX
  5
11D6
  8
0
 10
-1.499999999999543
 20
329.9969681327349917
 30
0.0
 42
0.4142135623730795
  0
VERTEX
  5
11D7
  8
0
 10
-1.999999999999543
 20
329.4969681327349917
 30
0.0
  0
VERTEX
  5
11D8
  8
0
 10
-1.999999999999998
 20
320.4969681327344802
 30
0.0
 42
0.4142135623731109
  0
VERTEX
  5
11D9
  8
0
 10
-1.5000000000000091
 20
319.9969681327344802
 30
0.0
  0
VERTEX
  5
11DA
  8
0
 10
187.0000813530045036
 20
319.9969681327353896
 30
0.0
 42
-0.2495527609037868
  0
VERTEX
  5
11DB
  8
0
 10
191.9771447130829074
 20
317.3479143140198744
 30
0.0
 42
1.0468654080323661
  0
VERTEX
  5
11DC
  8
0
 10
192.1375924142361953
 20
317.4669636543001161
 30
0.0
 42
-0.0393445209123353
  0
VERTEX
  5
11DD
  8
0
 10
191.4221114626051872
 20
318.5005660542663009
 30
0.0
  0
VERTEX
  5
11DE
  8
0
 10
168.8208481084770938
 20
357.355950112860512
 30
0.0
 42
-0.4142135623732653
  0
VERTEX
  5
11DF
  8
0
 10
170.9904451144788027
 20
365.5591719696420228
 30
0.0
  0
VERTEX
  5
11E0
  8
0
 10
240.3719253228832997
 20
405.9167477363532726
 30
0.0
 42
-0.0177889798568307
  0
VERTEX
  5
11E1
  8
0
 10
245.5903131482322976
 20
408.7086466260431052
 30
0.0
 42
-0.0528793361019479
  0
VERTEX
  5
11E2
  8
0
 10
279.9077288798171139
 20
421.2365967858236786
 30
0.0
 42
-0.3337014766468284
  0
VERTEX
  5
11E3
  8
0
 10
285.992627100521986
 20
418.6654113899392087
 30
0.0
  0
VERTEX
  5
11E4
  8
0
 10
306.8685421718463999
 20
382.7761920590749014
 30
0.0
 42
-0.4142135623730915
  0
VERTEX
  5
11E5
  8
0
 10
304.6989451658437247
 20
374.5729702022960055
 30
0.0
  0
VERTEX
  5
11E6
  8
0
 10
302.8605560473533274
 20
373.5036224755638159
 30
0.0
 42
0.9999999999999996
  0
VERTEX
  5
11E7
  8
0
 10
302.9611164615320718
 20
373.3307421611842187
 30
0.0
  0
VERTEX
  5
11E8
  8
0
 10
304.7995055800233217
 20
374.4000898879160104
 30
0.0
 42
-0.4142135623730752
  0
VERTEX
  5
11E9
  8
0
 10
313.0027274368035251
 20
372.2304928819136762
 30
0.0
  0
VERTEX
  5
11EA
  8
0
 10
322.2040053342375927
 20
356.4119441161707869
 30
0.0
 42
-0.4142135623731926
  0
VERTEX
  5
11EB
  8
0
 10
320.0344083282355996
 20
348.2087222593916067
 30
0.0
  0
VERTEX
  5
11EC
  8
0
 10
318.6835414098313777
 20
347.4229547340152067
 30
0.0
 42
0.2873841989342198
  0
SEQEND
  5
11ED
  8
0
  0
CIRCLE
  5
72F
  8
0
 10
454.0000000000007958
 20
383.3206337198553797
 30
0.0
 40
4.0
  0
CIRCLE
  5
730
  8
0
 10
250.0000000000009095
 20
458.3206337198553797
 30
0.0
 40
4.0
  0
CIRCLE
  5
731
  8
0
 10
254.3541564131651
 20
369.0061894463191265
 30
0.0
 40
4.0
  0
CIRCLE
  5
732
  8
0
 10
54.0000000000004405
 20
383.3206337198553797
 30
0.0
 40
4.0
  0
CIRCLE
  5
733
  8
0
 10
54.0000000000004405
 20
284.9984840663672117
 30
0.0
 40
4.0
  0
CIRCLE
  5
734
  8
0
 10
445.9999999999993179
 20
284.9984840663672117
 30
0.0
 40
4.0
  0
CIRCLE
  5
735
  8
0
 10
454.0000000000007958
 20
144.9999999999996874
 30
0.0
 40
4.0
  0
CIRCLE
  5
736
  8
0
 10
250.0000000000009095
 20
219.999999999999801
 30
0.0
 40
4.0
  0
CIRCLE
  5
737
  8
0
 10
54.0000000000004405
 20
144.9999999999996874
 30
0.0
 40
4.0
  0
CIRCLE
  5
738
  8
0
 10
54.0000000000004405
 20
41.677850346511363
 30
0.0
 40
4.0
  0
CIRCLE
  5
739
  8
0
 10
254.3541564131651
 20
130.6855557264632068
 30
0.0
 40
4.0
  0
CIRCLE
  5
73A
  8
0
 10
445.9999999999993179
 20
41.677850346511363
 30
0.0
 40
4.0
  0
CIRCLE
  5
7F6
  8
0
 10
54.0000000000004405
 20
383.3206337198553797
 30
0.0
 40
0.0999999999999997
  0
CIRCLE
  5
7F7
  8
0
 10
250.0000000000009095
 20
458.3206337198553797
 30
0.0
 40
0.0999999999999997
  0
CIRCLE
  5
7F8
  8
0
 10
454.0000000000007958
 20
383.3206337198553797
 30
0.0
 40
0.0999999999999997
  0
CIRCLE
  5
7F9
  8
0
 10
254.3541564131651
 20
369.0061894463191265
 30
0.0
 40
0.0999999999999997
  0
CIRCLE
  5
7FA
  8
0
 10
250.0000000000009095
 20
219.999999999999801
 30
0.0
 40
0.0999999999999997
  0
CIRCLE
  5
7FB
  8
0
 10
454.0000000000007958
 20
144.9999999999996874
 30
0.0
 40
0.0999999999999997
  0
CIRCLE
  5
7FC
  8
0
 10
54.0000000000004405
 20
144.9999999999996874
 30
0.0
 40
0.0999999999999997
  0
CIRCLE
  5
7FD
  8
0
 10
254.3541564131651
 20
130.6855557264632068
 30
0.0
 40
0.0999999999999997
  0
CIRCLE
  5
7FE
  8
0
 10
445.9999999999993179
 20
41.677850346511363
 30
0.0
 40
0.0999999999999997
  0
CIRCLE
  5
7FF
  8
0
 10
54.0000000000004405
 20
41.677850346511363
 30
0.0
 40
0.0999999999999997
  0
CIRCLE
  5
A2E
  8
0
 10
54.0000000000004405
 20
284.9984840663672117
 30
0.0
 40
0.0999999999999997
  0
CIRCLE
  5
A2F
  8
0
 10
445.9999999999993179
 20
284.9984840663672117
 30
0.0
 40
0.0999999999999997
  0
DIMENSION
  5
D9B
  8
0
  2
*D5
 10
500.0
 20
527.9450326233964006
 30
0.0
 11
250.0
 21
527.9450326233964006
 31
0.0
 70
     0
 13
0.0
 23
499.9999999999997726
 33
0.0
 14
500.0
 24
499.9999999999997726
 34
0.0
1001
ACAD
1000
DSTYLE
1002
{
1070
   287
1070
     3
1070
   287
1070
     3
1070
   274
1070
     2
1070
   279
1070
     0
1070
   284
1070
     0
1070
   285
1070
     0
1070
   286
1070
     0
1002
}
  0
DIMENSION
  5
FC8
  8
0
  2
*D3
 10
563.318198159537701
 20
0.0000000000000102
 30
0.0
 11
561.443198159537701
 21
249.999999999999801
 31
0.0
 70
     0
 13
500.0
 23
499.9999999999997726
 33
0.0
 14
500.0
 24
0.0
 34
0.0
 50
90.0
1001
ACAD
1000
DSTYLE
1002
{
1070
   287
1070
     3
1070
   274
1070
     2
1070
   279
1070
     0
1070
   284
1070
     0
1070
   285
1070
     0
1070
   286
1070
     0
1002
}
  0
ENDSEC
  0
EOF
